<svg width="470" height="303" viewBox="0 0 470 303" fill="none" xmlns="http://www.w3.org/2000/svg">
<g id="logo-grid">
<g id="grid">
<path id="Vector" d="M469 1H1V302H469V1Z" stroke="#8E8E8E" stroke-miterlimit="10"/>
<path id="Vector_2" d="M1 285H469" stroke="#8E8E8E" stroke-miterlimit="10"/>
<path id="Vector_3" d="M1 269H469" stroke="#8E8E8E" stroke-miterlimit="10"/>
<path id="Vector_4" d="M1 252H469" stroke="#8E8E8E" stroke-miterlimit="10"/>
<path id="Vector_5" d="M1 235H469" stroke="#8E8E8E" stroke-miterlimit="10"/>
<path id="Vector_6" d="M1 218H469" stroke="#8E8E8E" stroke-miterlimit="10"/>
<path id="Vector_7" d="M1 202H469" stroke="#8E8E8E" stroke-miterlimit="10"/>
<path id="Vector_8" d="M1 185H469" stroke="#8E8E8E" stroke-miterlimit="10"/>
<path id="Vector_9" d="M1 168H469" stroke="#8E8E8E" stroke-miterlimit="10"/>
<path id="Vector_10" d="M1 152H469" stroke="#8E8E8E" stroke-miterlimit="10"/>
<path id="Vector_11" d="M1 135H469" stroke="#8E8E8E" stroke-miterlimit="10"/>
<path id="Vector_12" d="M1 118H469" stroke="#8E8E8E" stroke-miterlimit="10"/>
<path id="Vector_13" d="M1 101H469" stroke="#8E8E8E" stroke-miterlimit="10"/>
<path id="Vector_14" d="M1 85H469" stroke="#8E8E8E" stroke-miterlimit="10"/>
<path id="Vector_15" d="M1 68H469" stroke="#8E8E8E" stroke-miterlimit="10"/>
<path id="Vector_16" d="M1 51H469" stroke="#8E8E8E" stroke-miterlimit="10"/>
<path id="Vector_17" d="M1 34H469" stroke="#8E8E8E" stroke-miterlimit="10"/>
<path id="Vector_18" d="M1 18H469" stroke="#8E8E8E" stroke-miterlimit="10"/>
<path id="Vector_19" d="M469.323 0.81601V302.184" stroke="#8E8E8E" stroke-miterlimit="10"/>
<path id="Vector_20" d="M452.604 0.81601V302.184" stroke="#8E8E8E" stroke-miterlimit="10"/>
<path id="Vector_21" d="M435.87 0.81601V302.184" stroke="#8E8E8E" stroke-miterlimit="10"/>
<path id="Vector_22" d="M419.135 0.81601V302.184" stroke="#8E8E8E" stroke-miterlimit="10"/>
<path id="Vector_23" d="M402.4 0.81601V302.184" stroke="#8E8E8E" stroke-miterlimit="10"/>
<path id="Vector_24" d="M385.666 0.81601V302.184" stroke="#8E8E8E" stroke-miterlimit="10"/>
<path id="Vector_25" d="M368.931 0.81601V302.184" stroke="#8E8E8E" stroke-miterlimit="10"/>
<path id="Vector_26" d="M352.196 0.81601V302.184" stroke="#8E8E8E" stroke-miterlimit="10"/>
<path id="Vector_27" d="M335.461 0.81601V302.184" stroke="#8E8E8E" stroke-miterlimit="10"/>
<path id="Vector_28" d="M318.743 0.81601V302.184" stroke="#8E8E8E" stroke-miterlimit="10"/>
<path id="Vector_29" d="M302.008 0.81601V302.184" stroke="#8E8E8E" stroke-miterlimit="10"/>
<path id="Vector_30" d="M285.273 0.81601V302.184" stroke="#8E8E8E" stroke-miterlimit="10"/>
<path id="Vector_31" d="M268.539 0.81601V302.184" stroke="#8E8E8E" stroke-miterlimit="10"/>
<path id="Vector_32" d="M251.804 0.81601V302.184" stroke="#8E8E8E" stroke-miterlimit="10"/>
<path id="Vector_33" d="M235.069 0.81601V302.184" stroke="#8E8E8E" stroke-miterlimit="10"/>
<path id="Vector_34" d="M218.334 0.81601V302.184" stroke="#8E8E8E" stroke-miterlimit="10"/>
<path id="Vector_35" d="M201.6 0.81601V302.184" stroke="#8E8E8E" stroke-miterlimit="10"/>
<path id="Vector_36" d="M184.881 0.81601V302.184" stroke="#8E8E8E" stroke-miterlimit="10"/>
<path id="Vector_37" d="M168.147 0.81601V302.184" stroke="#8E8E8E" stroke-miterlimit="10"/>
<path id="Vector_38" d="M151.412 0.81601V302.184" stroke="#8E8E8E" stroke-miterlimit="10"/>
<path id="Vector_39" d="M134.677 0.81601V302.184" stroke="#8E8E8E" stroke-miterlimit="10"/>
<path id="Vector_40" d="M117.942 0.81601V302.184" stroke="#8E8E8E" stroke-miterlimit="10"/>
<path id="Vector_41" d="M101.208 0.81601V302.184" stroke="#8E8E8E" stroke-miterlimit="10"/>
<path id="Vector_42" d="M84.4729 0.81601V302.184" stroke="#8E8E8E" stroke-miterlimit="10"/>
<path id="Vector_43" d="M67.7382 0.81601V302.184" stroke="#8E8E8E" stroke-miterlimit="10"/>
<path id="Vector_44" d="M51.0198 0.81601V302.184" stroke="#8E8E8E" stroke-miterlimit="10"/>
<path id="Vector_45" d="M34.285 0.81601V302.184" stroke="#8E8E8E" stroke-miterlimit="10"/>
<path id="Vector_46" d="M17.5503 0.81601V302.184" stroke="#8E8E8E" stroke-miterlimit="10"/>
</g>
<g id="Vector_47">
<mask id="path-47-inside-1_135_2" fill="white">
<path d="M68 285C95.6142 285 118 262.614 118 235C118 207.386 95.6142 185 68 185C40.3858 185 18 207.386 18 235C18 262.614 40.3858 285 68 285Z"/>
</mask>
<path d="M68 285C95.6142 285 118 262.614 118 235C118 207.386 95.6142 185 68 185C40.3858 185 18 207.386 18 235C18 262.614 40.3858 285 68 285Z" fill="#E6E6E6" stroke="#8E8E8E" stroke-width="2" mask="url(#path-47-inside-1_135_2)"/>
</g>
<g id="Group 20">
<g id="Vector_48">
<mask id="path-48-inside-2_135_2" fill="white">
<path d="M196.843 45.2507C184.681 20.4746 154.523 10.349 129.483 22.6347C104.444 34.9204 94.0042 64.9649 106.166 89.7411L188.277 257.015C200.439 281.791 230.596 291.917 255.636 279.631C280.676 267.346 291.115 237.301 278.953 212.525L196.843 45.2507Z"/>
</mask>
<path d="M196.843 45.2507C184.681 20.4746 154.523 10.349 129.483 22.6347C104.444 34.9204 94.0042 64.9649 106.166 89.7411L188.277 257.015C200.439 281.791 230.596 291.917 255.636 279.631C280.676 267.346 291.115 237.301 278.953 212.525L196.843 45.2507Z" fill="#E6E6E6" stroke="#8E8E8E" stroke-width="2" mask="url(#path-48-inside-2_135_2)"/>
</g>
<g id="Vector_49">
<mask id="path-49-inside-3_135_2" fill="white">
<path d="M365.533 45.7819C353.428 21.121 323.316 11.089 298.276 23.3747C273.236 35.6603 262.751 65.6114 274.856 90.2723L356.584 256.768C368.69 281.429 398.802 291.461 423.841 279.175C448.881 266.889 459.366 236.938 447.261 212.277L365.533 45.7819Z"/>
</mask>
<path d="M365.533 45.7819C353.428 21.121 323.316 11.089 298.276 23.3747C273.236 35.6603 262.751 65.6114 274.856 90.2723L356.584 256.768C368.69 281.429 398.802 291.461 423.841 279.175C448.881 266.889 459.366 236.938 447.261 212.277L365.533 45.7819Z" fill="#E6E6E6" stroke="#8E8E8E" stroke-width="2" mask="url(#path-49-inside-3_135_2)"/>
</g>
</g>
<g id="Mask group">
<mask id="mask0_135_2" style="mask-type:alpha" maskUnits="userSpaceOnUse" x="1" y="0" width="468" height="303">
<rect id="rect-mask2" x="1" width="468" height="303" fill="white"/>
</mask>
<g mask="url(#mask0_135_2)">
<g id="Group 34">
<g id="Rectangle 74" filter="url(#filter0_f_135_2)">
<rect x="109" y="61.1522" width="103" height="285.767" rx="51.5" transform="rotate(-26 109 61.1522)" fill="black" fill-opacity="0.1"/>
</g>
<g id="Rectangle 75" filter="url(#filter1_f_135_2)">
<rect x="274" y="61.1522" width="103" height="285.767" rx="51.5" transform="rotate(-26 274 61.1522)" fill="black" fill-opacity="0.1"/>
</g>
<g id="Ellipse 2" filter="url(#filter2_f_135_2)">
<ellipse cx="113.5" cy="256" rx="49.5" ry="50" fill="black" fill-opacity="0.1"/>
</g>
</g>
</g>
</g>
<g id="Mask group_2" filter="url(#filter3_i_135_2)">
<mask id="mask1_135_2" style="mask-type:alpha" maskUnits="userSpaceOnUse" x="1" y="0" width="468" height="303">
<rect id="rect-mask1" x="1" width="468" height="303" fill="white"/>
</mask>
<g mask="url(#mask1_135_2)">
<g id="Group 34_2">
<g id="Group 18">
<g id="Rectangle 74_2" filter="url(#filter4_i_135_2)">
<rect x="252.661" y="45.535" width="103" height="285.066" rx="51.5" transform="rotate(-26 252.661 45.535)" fill="url(#paint0_linear_135_2)"/>
<rect x="252.661" y="45.535" width="103" height="285.066" rx="51.5" transform="rotate(-26 252.661 45.535)" fill="url(#paint1_linear_135_2)" fill-opacity="0.4"/>
</g>
<g id="Vector_50" style="mix-blend-mode:lighten" filter="url(#filter5_f_135_2)">
<path d="M278.843 64.273C276.067 58.8625 280.806 51.9099 284.102 47.0703C286.185 44.0132 295.972 30.44 313.082 26.6614C316.572 25.8914 328.746 23.2003 332.984 28.9191C334.987 31.6217 334.83 35.6873 333.258 38.8997C330.21 45.14 323.496 44.7843 313.466 51.4591C300.435 60.1277 300.103 68.4907 291.693 69.7857C286.421 70.5933 280.848 68.1855 278.843 64.273Z" fill="url(#paint2_linear_135_2)" fill-opacity="0.7"/>
</g>
</g>
<g id="Group 21">
<g id="Rectangle 74_3" filter="url(#filter6_i_135_2)">
<rect x="84.5631" y="45.3353" width="103" height="285.767" rx="51.5" transform="rotate(-26 84.5631 45.3353)" fill="url(#paint3_linear_135_2)"/>
<rect x="84.5631" y="45.3353" width="103" height="285.767" rx="51.5" transform="rotate(-26 84.5631 45.3353)" fill="url(#paint4_linear_135_2)" fill-opacity="0.4"/>
</g>
<g id="Vector_51" style="mix-blend-mode:lighten" filter="url(#filter7_f_135_2)">
<path d="M111.131 64.273C108.356 58.8625 113.094 51.9099 116.39 47.0703C118.473 44.0132 128.261 30.44 145.37 26.6614C148.86 25.8914 161.035 23.2003 165.272 28.9191C167.276 31.6217 167.118 35.6873 165.546 38.8997C162.498 45.14 155.784 44.7843 145.754 51.4591C132.723 60.1277 132.391 68.4907 123.981 69.7857C118.709 70.5933 113.136 68.1855 111.131 64.273Z" fill="url(#paint5_linear_135_2)" fill-opacity="0.7"/>
</g>
</g>
<g id="pinke-kugel-1">
<ellipse id="Ellipse 2_2" cx="68" cy="235" rx="49.5" ry="50" fill="url(#paint6_radial_135_2)"/>
<g id="Vector_52" style="mix-blend-mode:lighten" filter="url(#filter8_f_135_2)">
<path d="M29.862 229.195C27.4484 224.443 31.569 218.336 34.4355 214.084C36.2471 211.399 44.7584 199.476 59.637 196.157C62.6721 195.481 73.2593 193.117 76.9445 198.14C78.6866 200.514 78.5494 204.085 77.1829 206.907C74.5318 212.389 68.6933 212.076 59.9709 217.94C48.6393 225.554 48.3505 232.9 41.037 234.038C36.4522 234.747 31.6054 232.632 29.862 229.195Z" fill="url(#paint7_linear_135_2)" fill-opacity="0.7"/>
</g>
</g>
</g>
</g>
</g>
</g>
<defs>
<filter id="filter0_f_135_2" x="96.3523" y="3.35234" width="243.143" height="327.293" filterUnits="userSpaceOnUse" color-interpolation-filters="sRGB">
<feFlood flood-opacity="0" result="BackgroundImageFix"/>
<feBlend mode="normal" in="SourceGraphic" in2="BackgroundImageFix" result="shape"/>
<feGaussianBlur stdDeviation="15" result="effect1_foregroundBlur_135_2"/>
</filter>
<filter id="filter1_f_135_2" x="261.352" y="3.35234" width="243.143" height="327.293" filterUnits="userSpaceOnUse" color-interpolation-filters="sRGB">
<feFlood flood-opacity="0" result="BackgroundImageFix"/>
<feBlend mode="normal" in="SourceGraphic" in2="BackgroundImageFix" result="shape"/>
<feGaussianBlur stdDeviation="15" result="effect1_foregroundBlur_135_2"/>
</filter>
<filter id="filter2_f_135_2" x="34" y="176" width="159" height="160" filterUnits="userSpaceOnUse" color-interpolation-filters="sRGB">
<feFlood flood-opacity="0" result="BackgroundImageFix"/>
<feBlend mode="normal" in="SourceGraphic" in2="BackgroundImageFix" result="shape"/>
<feGaussianBlur stdDeviation="15" result="effect1_foregroundBlur_135_2"/>
</filter>
<filter id="filter3_i_135_2" x="18.5" y="17.5354" width="434.349" height="267.465" filterUnits="userSpaceOnUse" color-interpolation-filters="sRGB">
<feFlood flood-opacity="0" result="BackgroundImageFix"/>
<feBlend mode="normal" in="SourceGraphic" in2="BackgroundImageFix" result="shape"/>
<feColorMatrix in="SourceAlpha" type="matrix" values="0 0 0 0 0 0 0 0 0 0 0 0 0 0 0 0 0 0 127 0" result="hardAlpha"/>
<feOffset/>
<feGaussianBlur stdDeviation="6"/>
<feComposite in2="hardAlpha" operator="arithmetic" k2="-1" k3="1"/>
<feColorMatrix type="matrix" values="0 0 0 0 0 0 0 0 0 0 0 0 0 0 0 0 0 0 0.25 0"/>
<feBlend mode="multiply" in2="shape" result="effect1_innerShadow_135_2"/>
</filter>
<filter id="filter4_i_135_2" x="255.013" y="2.73511" width="197.836" height="281.663" filterUnits="userSpaceOnUse" color-interpolation-filters="sRGB">
<feFlood flood-opacity="0" result="BackgroundImageFix"/>
<feBlend mode="normal" in="SourceGraphic" in2="BackgroundImageFix" result="shape"/>
<feColorMatrix in="SourceAlpha" type="matrix" values="0 0 0 0 0 0 0 0 0 0 0 0 0 0 0 0 0 0 127 0" result="hardAlpha"/>
<feOffset dx="-15" dy="-15"/>
<feGaussianBlur stdDeviation="10"/>
<feComposite in2="hardAlpha" operator="arithmetic" k2="-1" k3="1"/>
<feColorMatrix type="matrix" values="0 0 0 0 0 0 0 0 0 0 0 0 0 0 0 0 0 0 0.05 0"/>
<feBlend mode="normal" in2="shape" result="effect1_innerShadow_135_2"/>
</filter>
<filter id="filter5_f_135_2" x="266.005" y="13.3543" width="80.4565" height="68.5871" filterUnits="userSpaceOnUse" color-interpolation-filters="sRGB">
<feFlood flood-opacity="0" result="BackgroundImageFix"/>
<feBlend mode="normal" in="SourceGraphic" in2="BackgroundImageFix" result="shape"/>
<feGaussianBlur stdDeviation="6" result="effect1_foregroundBlur_135_2"/>
</filter>
<filter id="filter6_i_135_2" x="86.9154" y="2.53537" width="198.143" height="282.293" filterUnits="userSpaceOnUse" color-interpolation-filters="sRGB">
<feFlood flood-opacity="0" result="BackgroundImageFix"/>
<feBlend mode="normal" in="SourceGraphic" in2="BackgroundImageFix" result="shape"/>
<feColorMatrix in="SourceAlpha" type="matrix" values="0 0 0 0 0 0 0 0 0 0 0 0 0 0 0 0 0 0 127 0" result="hardAlpha"/>
<feOffset dx="-15" dy="-15"/>
<feGaussianBlur stdDeviation="10"/>
<feComposite in2="hardAlpha" operator="arithmetic" k2="-1" k3="1"/>
<feColorMatrix type="matrix" values="0 0 0 0 0 0 0 0 0 0 0 0 0 0 0 0 0 0 0.05 0"/>
<feBlend mode="normal" in2="shape" result="effect1_innerShadow_135_2"/>
</filter>
<filter id="filter7_f_135_2" x="98.2937" y="13.3543" width="80.4565" height="68.5871" filterUnits="userSpaceOnUse" color-interpolation-filters="sRGB">
<feFlood flood-opacity="0" result="BackgroundImageFix"/>
<feBlend mode="normal" in="SourceGraphic" in2="BackgroundImageFix" result="shape"/>
<feGaussianBlur stdDeviation="6" result="effect1_foregroundBlur_135_2"/>
</filter>
<filter id="filter8_f_135_2" x="17.1338" y="183.009" width="73.0959" height="63.1656" filterUnits="userSpaceOnUse" color-interpolation-filters="sRGB">
<feFlood flood-opacity="0" result="BackgroundImageFix"/>
<feBlend mode="normal" in="SourceGraphic" in2="BackgroundImageFix" result="shape"/>
<feGaussianBlur stdDeviation="6" result="effect1_foregroundBlur_135_2"/>
</filter>
<linearGradient id="paint0_linear_135_2" x1="304.161" y1="45.535" x2="304.161" y2="330.601" gradientUnits="userSpaceOnUse">
<stop stop-color="#BAFFE6"/>
<stop offset="1" stop-color="#79FAD3"/>
</linearGradient>
<linearGradient id="paint1_linear_135_2" x1="252.65" y1="192.807" x2="356.194" y2="193.813" gradientUnits="userSpaceOnUse">
<stop stop-color="#79FAD3"/>
<stop offset="0.5" stop-color="#BAFFE6"/>
<stop offset="1" stop-color="#79FAD3"/>
</linearGradient>
<linearGradient id="paint2_linear_135_2" x1="273.67" y1="81.7566" x2="353.381" y2="-8.97307" gradientUnits="userSpaceOnUse">
<stop stop-color="#B2B2B2"/>
<stop offset="0.471666" stop-color="white"/>
<stop offset="1" stop-color="#8E8E8E"/>
</linearGradient>
<linearGradient id="paint3_linear_135_2" x1="136.063" y1="45.3353" x2="136.063" y2="331.102" gradientUnits="userSpaceOnUse">
<stop stop-color="#FFB9DE"/>
<stop offset="1" stop-color="#FA79C2"/>
</linearGradient>
<linearGradient id="paint4_linear_135_2" x1="84.5524" y1="192.969" x2="188.097" y2="193.972" gradientUnits="userSpaceOnUse">
<stop stop-color="#FA79C2"/>
<stop offset="0.5" stop-color="#FFB9DE"/>
<stop offset="1" stop-color="#FA79C2"/>
</linearGradient>
<linearGradient id="paint5_linear_135_2" x1="105.958" y1="81.7566" x2="185.669" y2="-8.97306" gradientUnits="userSpaceOnUse">
<stop stop-color="#B2B2B2"/>
<stop offset="0.471666" stop-color="white"/>
<stop offset="1" stop-color="#8E8E8E"/>
</linearGradient>
<radialGradient id="paint6_radial_135_2" cx="0" cy="0" r="1" gradientUnits="userSpaceOnUse" gradientTransform="translate(49.6143 222.143) rotate(46.3107) scale(112.611 112.565)">
<stop stop-color="#FFB9DE"/>
<stop offset="1" stop-color="#FA79C2"/>
</radialGradient>
<linearGradient id="paint7_linear_135_2" x1="25.3635" y1="244.553" x2="95.4697" y2="165.554" gradientUnits="userSpaceOnUse">
<stop stop-color="#B2B2B2"/>
<stop offset="0.471666" stop-color="white"/>
<stop offset="1" stop-color="#8E8E8E"/>
</linearGradient>
</defs>
</svg>
