<svg width="115" height="60" viewBox="0 0 115 60" fill="none" xmlns="http://www.w3.org/2000/svg">
<g id="sun-moon-switch">
<rect id="sun-moon-switch-bg" width="115.034" height="59.5714" rx="29.7857" fill="#79A7FF"/>
<g id="stars" opacity="0.01">
<path id="Star 3" d="M36.5919 17.9687C36.9494 17.1938 38.0506 17.1938 38.4081 17.9687L38.5352 18.2442C38.6808 18.56 38.9801 18.7775 39.3255 18.8184L39.6268 18.8542C40.4742 18.9546 40.8145 20.002 40.188 20.5814L39.9652 20.7874C39.7099 21.0236 39.5956 21.3754 39.6634 21.7165L39.7225 22.0142C39.8888 22.8511 38.9979 23.4984 38.2532 23.0816L37.9884 22.9334C37.685 22.7635 37.315 22.7635 37.0116 22.9334L36.7468 23.0816C36.0021 23.4984 35.1112 22.8511 35.2775 22.0142L35.3366 21.7165C35.4044 21.3754 35.2901 21.0236 35.0348 20.7874L34.812 20.5814C34.1855 20.002 34.5258 18.9546 35.3732 18.8542L35.6745 18.8184C36.0199 18.7775 36.3192 18.56 36.4648 18.2442L36.5919 17.9687Z" fill="#FFF73E"/>
<path id="Star 4" d="M21.5919 12.9687C21.9494 12.1938 23.0506 12.1938 23.4081 12.9687L23.5352 13.2442C23.6808 13.56 23.9801 13.7775 24.3255 13.8184L24.6268 13.8542C25.4742 13.9546 25.8145 15.002 25.188 15.5814L24.9652 15.7874C24.7099 16.0236 24.5956 16.3754 24.6634 16.7165L24.7225 17.0142C24.8888 17.8511 23.9979 18.4984 23.2532 18.0816L22.9884 17.9334C22.685 17.7635 22.315 17.7635 22.0116 17.9334L21.7468 18.0816C21.0021 18.4984 20.1112 17.8511 20.2775 17.0142L20.3366 16.7165C20.4044 16.3754 20.2901 16.0236 20.0348 15.7874L19.812 15.5814C19.1855 15.002 19.5258 13.9546 20.3732 13.8542L20.6745 13.8184C21.0199 13.7775 21.3192 13.56 21.4648 13.2442L21.5919 12.9687Z" fill="#FFF73E"/>
<path id="Star 5" d="M12.5919 27.9687C12.9494 27.1938 14.0506 27.1938 14.4081 27.9687L14.5352 28.2442C14.6808 28.56 14.9801 28.7775 15.3255 28.8184L15.6268 28.8542C16.4742 28.9546 16.8145 30.002 16.188 30.5814L15.9652 30.7874C15.7099 31.0236 15.5956 31.3754 15.6634 31.7165L15.7225 32.0142C15.8888 32.8511 14.9979 33.4984 14.2532 33.0816L13.9884 32.9334C13.685 32.7635 13.315 32.7635 13.0116 32.9334L12.7468 33.0816C12.0021 33.4984 11.1112 32.8511 11.2775 32.0142L11.3366 31.7165C11.4044 31.3754 11.2901 31.0236 11.0348 30.7874L10.812 30.5814C10.1855 30.002 10.5258 28.9546 11.3732 28.8542L11.6745 28.8184C12.0199 28.7775 12.3192 28.56 12.4648 28.2442L12.5919 27.9687Z" fill="#FFF73E"/>
<path id="Star 6" d="M70.5919 37.9687C70.9494 37.1938 72.0506 37.1938 72.4081 37.9687L72.5352 38.2442C72.6808 38.56 72.9801 38.7775 73.3255 38.8184L73.6268 38.8542C74.4742 38.9546 74.8145 40.002 74.188 40.5814L73.9652 40.7874C73.7099 41.0236 73.5956 41.3754 73.6634 41.7165L73.7225 42.0142C73.8888 42.8511 72.9979 43.4984 72.2532 43.0816L71.9884 42.9334C71.685 42.7635 71.315 42.7635 71.0116 42.9334L70.7468 43.0816C70.0021 43.4984 69.1112 42.8511 69.2775 42.0142L69.3366 41.7165C69.4044 41.3754 69.2901 41.0236 69.0348 40.7874L68.812 40.5814C68.1855 40.002 68.5258 38.9546 69.3732 38.8542L69.6745 38.8184C70.0199 38.7775 70.3192 38.56 70.4648 38.2442L70.5919 37.9687Z" fill="#FFF73E"/>
</g>
<path id="wolke-2" fill-rule="evenodd" clip-rule="evenodd" d="M93.8839 16.9998H93.9999C98.4182 16.9998 102 20.5816 102 24.9999C102 29.4182 98.4182 33 93.9999 33H73.0001C68.5818 33 65 29.4182 65 24.9999C65 20.5816 68.5818 16.9998 73.0001 16.9998H75.1194C75.8387 12.4659 79.7654 9 84.5016 9C89.2378 9 93.1646 12.4659 93.8839 16.9998Z" fill="white"/>
<g id="toogle-sun">
<circle id="sum-mood-bg" cx="29.65" cy="29.79" r="24.6502" fill="#FFF73E"/>
<g id="punkte" opacity="0.01">
<circle id="Ellipse 4" cx="17.3643" cy="24.5044" r="6.5" fill="#CACACA"/>
<circle id="Ellipse 8" cx="39.3643" cy="40.5044" r="6.5" fill="#CACACA"/>
<circle id="Ellipse 6" cx="35.8643" cy="25.0044" r="4" fill="#CACACA"/>
<circle id="Ellipse 7" cx="28.8643" cy="12.0044" r="4" fill="#CACACA"/>
<circle id="Ellipse 5" cx="17.8643" cy="43.0044" r="4" fill="#CACACA"/>
<circle id="Ellipse 9" cx="47.8643" cy="16.0044" r="4" fill="#CACACA"/>
</g>
</g>
<path id="wolke-1" fill-rule="evenodd" clip-rule="evenodd" d="M65.8821 38.9999H68.9999C73.4182 38.9999 77 42.5816 77 46.9999C77 51.4182 73.4182 55 68.9999 55H48.0001C43.5818 55 40 51.4182 40 46.9999C40 42.8824 43.1106 39.4915 47.1101 39.0488C47.8088 34.4909 51.7467 31 56.4999 31C61.2362 31 65.1629 34.466 65.8821 38.9999Z" fill="white"/>
<rect id="switch-stoke" x="2.5" y="2.5" width="110.034" height="54.5714" rx="27.2857" stroke="#91C0FF" stroke-width="5"/>
</g>
</svg>
